<?xml version="1.0" encoding="UTF-8" standalone="no"?>
<svg
   xmlns:dc="http://purl.org/dc/elements/1.1/"
   xmlns:cc="http://creativecommons.org/ns#"
   xmlns:rdf="http://www.w3.org/1999/02/22-rdf-syntax-ns#"
   xmlns:svg="http://www.w3.org/2000/svg"
   xmlns="http://www.w3.org/2000/svg"
   xmlns:sodipodi="http://sodipodi.sourceforge.net/DTD/sodipodi-0.dtd"
   xmlns:inkscape="http://www.inkscape.org/namespaces/inkscape"
   version="1.0"
   width="662.84644"
   height="662.84644"
   id="svg115845"
   sodipodi:docname="oracle.svg"
   inkscape:version="1.0.2-2 (e86c870879, 2021-01-15)">
  <metadata
     id="metadata24">
    <rdf:RDF>
      <cc:Work
         rdf:about="">
        <dc:format>image/svg+xml</dc:format>
        <dc:type
           rdf:resource="http://purl.org/dc/dcmitype/StillImage" />
        <dc:title></dc:title>
      </cc:Work>
    </rdf:RDF>
  </metadata>
  <sodipodi:namedview
     pagecolor="#ffffff"
     bordercolor="#666666"
     borderopacity="1"
     objecttolerance="10"
     gridtolerance="10"
     guidetolerance="10"
     inkscape:pageopacity="0"
     inkscape:pageshadow="2"
     inkscape:window-width="2560"
     inkscape:window-height="1377"
     id="namedview22"
     showgrid="false"
     inkscape:zoom="1.9386089"
     inkscape:cx="250.95314"
     inkscape:cy="228.25646"
     inkscape:window-x="1432"
     inkscape:window-y="410"
     inkscape:window-maximized="1"
     inkscape:current-layer="svg115845" />
  <defs
     id="defs115847">
    <clipPath
       id="clp82">
      <path
         d="m 1001.6,870.49 h 34.7 v -13.08 h -34.7 z"
         id="path1826" />
    </clipPath>
    <clipPath
       id="clp83">
      <path
         d="m 1001.6,870.49 h 34.7 v -13.08 h -34.7 z"
         id="path1835" />
    </clipPath>
    <clipPath
       id="clp84">
      <path
         d="m 1001.6,870.49 h 34.7 v -13.08 h -34.7 z"
         id="path1844" />
    </clipPath>
    <clipPath
       id="clp81">
      <path
         d="m 1000.9,934.34 h 37.7 v -12.1 h -37.7 z"
         id="path1800" />
    </clipPath>
    <clipPath
       id="clipPath116030">
      <path
         d="m 1001.6,870.49 h 34.7 v -13.08 h -34.7 z"
         id="path116032" />
    </clipPath>
    <clipPath
       id="clipPath116038">
      <path
         d="m 1001.6,870.49 h 34.7 v -13.08 h -34.7 z"
         id="path116040" />
    </clipPath>
    <clipPath
       id="clipPath116046">
      <path
         d="m 1001.6,870.49 h 34.7 v -13.08 h -34.7 z"
         id="path116048" />
    </clipPath>
  </defs>
  <g
     transform="translate(-702.65381,-428.23331)"
     id="layer1">
    <g
       id="g16337">
      <path
         d="m 980.65099,771.70039 h 40.65191 l -21.49528,-34.58269 -39.45125,62.52702 h -17.95495 l 47.98587,-75.10828 c 2.08639,-3.03469 5.56353,-4.8681 9.42033,-4.8681 3.72988,0 7.20708,1.77022 9.23028,4.74166 l 48.1755,75.23472 h -17.955 l -8.4719,-13.97216 h -41.15803 z m 186.50631,13.97217 v -65.24555 h -15.2366 v 71.63104 c 0,1.9599 0.7588,3.85655 2.2128,5.31065 1.4539,1.45415 3.4139,2.27602 5.5635,2.27602 h 69.4816 l 8.9775,-13.97216 z M 915.08933,773.97641 c 14.79428,0 26.80655,-11.94902 26.80655,-26.7431 0,-14.79403 -12.01227,-26.8063 -26.80655,-26.8063 h -66.65566 v 79.21771 h 15.23056 v -65.24554 h 50.4135 c 7.08118,0 12.77109,5.7532 12.77109,12.83413 0,7.08092 -5.68991,12.83418 -12.77109,12.83418 l -42.95316,-0.0633 45.4819,39.64048 h 22.12823 l -30.59965,-25.66831 z m -160.41412,25.66831 c -21.86889,0 -39.61555,-17.70228 -39.61555,-39.57723 0,-21.875 17.74666,-39.64048 39.61555,-39.64048 h 46.04457 c 21.87495,0 39.60898,17.76548 39.60898,39.64048 0,21.87495 -17.73403,39.57723 -39.60898,39.57723 z m 45.02034,-13.97216 c 14.16841,0 25.64328,-11.44328 25.64328,-25.60507 0,-14.16185 -11.47487,-25.66831 -25.64328,-25.66831 h -44.00268 c -14.16184,0 -25.64329,11.50646 -25.64329,25.66831 0,14.16179 11.48145,25.60507 25.64329,25.60507 z m 289.31865,13.97216 c -21.875,0 -39.6403,-17.70228 -39.6403,-39.57723 0,-21.875 17.7653,-39.64048 39.6403,-39.64048 h 54.6874 l -8.9143,13.97217 h -44.7615 c -14.1619,0 -25.6681,11.50646 -25.6681,25.66831 0,14.16179 11.5062,25.60507 25.6681,25.60507 h 54.9401 l -8.9774,13.97216 z m 186.3167,-13.97216 c -11.6963,0 -21.6222,-7.8396 -24.657,-18.65064 h 65.1193 l 8.9775,-13.97216 h -74.0968 c 3.0348,-10.7478 12.9607,-18.65058 24.657,-18.65058 h 44.6983 l 9.0407,-13.97217 h -54.7506 c -21.875,0 -39.6403,17.76548 -39.6403,39.64048 0,21.87495 17.7653,39.57723 39.6403,39.57723 h 46.9743 l 8.9774,-13.97216 h -54.9401"
         style="fill:#f80000;fill-rule:nonzero;stroke:none"
         id="path16197" />
      <path
         d="m 1337.2258,728.8356 c 0,-3.85661 3.0975,-6.95449 6.9543,-6.95449 3.92,0 7.0175,3.09788 7.0175,6.95449 0,3.91974 -3.0975,7.01768 -7.0175,7.01768 -3.8568,0 -6.9543,-3.09794 -6.9543,-7.01768 z m 6.9543,8.97757 c 4.9311,0 8.9143,-3.98304 8.9143,-8.91438 0,-4.93134 -3.9832,-8.91433 -8.9143,-8.91433 -4.8684,0 -8.8511,3.98299 -8.8511,8.91433 0,4.93134 3.9827,8.91438 8.8511,8.91438 z m -0.822,-14.22503 c 1.3908,0 1.96,0.0632 2.5924,0.31606 1.77,0.56905 1.9595,2.14958 1.9595,2.78182 0,0.12644 0,0.44255 -0.1264,0.82186 -0.063,0.37937 -0.3159,1.13804 -1.2011,1.70703 -0.1264,0.0632 -0.1896,0.12644 -0.4424,0.25287 l 2.276,4.10948 h -2.2128 l -2.0232,-3.79336 h -1.3907 v 3.79336 h -1.96 v -9.98912 z m 0.6956,4.55198 c 0.632,-0.0632 1.2644,-0.0632 1.6436,-0.63224 0.1895,-0.25287 0.2532,-0.50574 0.2532,-0.88511 0,-0.50574 -0.3164,-0.9483 -0.7588,-1.20122 -0.4428,-0.18963 -0.8852,-0.18963 -1.8336,-0.18963 h -0.5687 v 2.9082 h 1.2643"
         style="fill:#f80000;fill-rule:nonzero;stroke:none"
         id="path16199" />
    </g>
  </g>
</svg>
